M48
;DRILL file {KiCad (5.0.2-5-10.14)} date Sunday, 28 April 2019 at 09:51:05
;FORMAT={-:-/ absolute / inch / decimal}
FMAT,2
INCH,TZ
T1C0.0004
T2C0.0157
T3C0.0320
T4C0.0394
T5C0.0512
T6C0.1220
T7C0.0472
T8C0.0689
T9C0.0866
T10C0.1570
T11C0.1851
%
G90
G05
T1
X5.7677Y-2.9724
X5.9646Y-2.9724
X5.0197Y-2.9724
X5.2165Y-2.9724
X6.5157Y-3.7205
X6.7126Y-3.7205
X3.5236Y-4.4685
X3.7205Y-4.4685
X6.5157Y-5.2165
X6.7126Y-5.2165
X8.0118Y-5.2165
X8.2087Y-5.2165
X7.2638Y-2.9724
X7.4606Y-2.9724
X4.2717Y-2.2244
X4.4685Y-2.2244
X4.2717Y-2.9724
X4.4685Y-2.9724
X7.2638Y-4.4685
X7.4606Y-4.4685
X5.7677Y-2.2244
X5.9646Y-2.2244
X5.0197Y-3.7205
X5.2165Y-3.7205
X7.2638Y-5.2165
X7.4606Y-5.2165
X6.5157Y-2.2244
X6.7126Y-2.2244
X7.2638Y-2.2244
X7.4606Y-2.2244
X5.7677Y-3.7205
X5.9646Y-3.7205
X5.0197Y-5.2165
X5.2165Y-5.2165
X6.5157Y-4.4685
X6.7126Y-4.4685
X4.2717Y-5.2165
X4.4685Y-5.2165
X5.7677Y-5.2165
X5.9646Y-5.2165
X6.5157Y-2.9724
X6.7126Y-2.9724
X8.0118Y-4.4685
X8.2087Y-4.4685
X3.5236Y-2.9724
X3.7205Y-2.9724
X7.2638Y-3.7205
X7.4606Y-3.7205
X5.0197Y-4.4685
X5.2165Y-4.4685
X5.7677Y-4.4685
X5.9646Y-4.4685
X4.2717Y-4.4685
X4.4685Y-4.4685
X3.5236Y-3.7205
X3.7205Y-3.7205
X3.5236Y-2.2244
X3.7205Y-2.2244
X5.0197Y-2.2244
X5.2165Y-2.2244
X4.2717Y-3.7205
X4.4685Y-3.7205
X3.5236Y-5.2165
X3.7205Y-5.2165
T2
X3.2943Y-1.9843
X3.2943Y-4.0394
X3.2992Y-3.0945
X3.3071Y-3.3307
X3.3228Y-1.9528
X3.3228Y-4.6378
X3.3228Y-5.378
X3.3268Y-2.5354
X3.3268Y-4.0945
X3.3307Y-2.622
X3.3346Y-3.4764
X3.3602Y-4.2126
X3.3622Y-4.7362
X3.3657Y-4.0827
X3.374Y-3.4567
X3.3898Y-2.4567
X3.4242Y-4.9685
X3.4291Y-2.7126
X3.4331Y-1.7953
X3.437Y-4.0551
X3.4488Y-2.5591
X3.4685Y-3.3543
X3.4724Y-1.8543
X3.4724Y-4.8465
X3.473Y-4.095
X3.4744Y-2.5984
X3.4882Y-3.2913
X3.4961Y-2.0276
X3.5Y-4.2953
X3.5315Y-4.7795
X3.5984Y-4.6614
X3.6181Y-3.878
X3.622Y-2.3858
X3.622Y-4.4646
X3.626Y-5.2165
X3.7441Y-2.0394
X3.748Y-4.3189
X3.7559Y-3.5433
X3.7697Y-5.0378
X3.7717Y-1.8976
X3.7717Y-4.1378
X3.7795Y-4.8976
X3.7847Y-2.6378
X3.7874Y-3.3858
X3.8307Y-4.0276
X3.8331Y-4.8189
X3.8386Y-2.5394
X3.863Y-2.7165
X3.8641Y-4.9606
X3.8642Y-4.2098
X3.8661Y-1.9685
X3.8661Y-3.4646
X3.9055Y-2.563
X3.9252Y-4.1693
X3.9331Y-4.3189
X3.937Y-5.0827
X3.9409Y-3.5512
X4.Y-3.6614
X4.0197Y-4.9213
X4.0827Y-2.0551
X4.0866Y-3.5591
X4.0866Y-4.063
X4.1033Y-4.8495
X4.1339Y-1.8189
X4.1339Y-3.4291
X4.1535Y-2.3858
X4.1614Y-1.9331
X4.1654Y-4.8031
X4.1657Y-4.1058
X4.1732Y-4.9291
X4.185Y-2.5591
X4.1969Y-4.8504
X4.2047Y-3.3189
X4.2165Y-1.8622
X4.217Y-2.5951
X4.2205Y-3.3543
X4.2221Y-4.111
X4.2362Y-3.9291
X4.2441Y-5.0315
X4.3425Y-2.4843
X4.3661Y-5.3504
X4.3701Y-3.7126
X4.3701Y-4.4606
X4.374Y-2.2126
X4.374Y-2.9764
X4.4488Y-2.4331
X4.4882Y-3.5433
X4.4961Y-5.0433
X4.5236Y-1.8976
X4.5236Y-3.4094
X4.5276Y-2.4094
X4.5377Y-4.1407
X4.5377Y-4.8888
X4.5512Y-2.6378
X4.5591Y-1.9449
X4.6102Y-4.2087
X4.6122Y-2.7165
X4.6122Y-3.4646
X4.6122Y-4.9606
X4.6142Y-1.9685
X4.626Y-5.3937
X4.6368Y-2.4173
X4.6535Y-2.0512
X4.6772Y-3.5748
X4.6772Y-4.9134
X4.6811Y-5.063
X4.7402Y-2.4449
X4.7402Y-3.4331
X4.7874Y-2.5906
X4.7913Y-4.0787
X4.8031Y-3.7874
X4.8071Y-4.5236
X4.8307Y-2.0472
X4.8307Y-3.5512
X4.8346Y-5.0276
X4.8425Y-2.4803
X4.878Y-1.9409
X4.8819Y-4.9252
X4.8976Y-1.8189
X4.9055Y-4.0551
X4.9134Y-2.5669
X4.9134Y-4.8031
X4.937Y-3.3228
X4.9488Y-2.6084
X4.9488Y-4.8504
X4.9685Y-1.8543
X4.9685Y-3.3543
X4.9685Y-4.1024
X5.1063Y-3.7047
X5.1142Y-4.4646
X5.122Y-2.2165
X5.122Y-5.2087
X5.1299Y-2.9764
X5.2402Y-3.5433
X5.2441Y-5.0315
X5.2717Y-1.8976
X5.2717Y-3.3937
X5.2756Y-2.6417
X5.2835Y-4.1339
X5.2858Y-4.8888
X5.3307Y-2.5748
X5.3583Y-3.4685
X5.3602Y-2.7244
X5.3602Y-4.2126
X5.3602Y-4.9606
X5.3622Y-1.9685
X5.3622Y-2.5
X5.3661Y-2.4449
X5.4173Y-2.0551
X5.4291Y-5.2913
X5.4331Y-5.0669
X5.437Y-3.5394
X5.5512Y-3.7756
X5.5512Y-4.5512
X5.5512Y-5.2835
X5.5551Y-4.937
X5.5748Y-2.0472
X5.5866Y-3.5551
X5.5906Y-5.0394
X5.5945Y-1.9488
X5.5984Y-3.4213
X5.6378Y-1.811
X5.6614Y-4.063
X5.6614Y-4.8031
X5.689Y-3.3071
X5.6929Y-2.5709
X5.6968Y-4.0872
X5.6969Y-4.8504
X5.7126Y-1.8583
X5.7165Y-2.5984
X5.7202Y-3.3507
X5.8583Y-5.1969
X5.8661Y-2.2047
X5.8661Y-3.7087
X5.8701Y-2.9764
X5.8701Y-4.4606
X5.9252Y-3.9449
X5.937Y-2.4606
X5.9843Y-3.5394
X5.9843Y-5.0433
X6.0197Y-2.6417
X6.0197Y-3.3858
X6.0236Y-1.9016
X6.0315Y-4.1339
X6.0394Y-4.8898
X6.1083Y-2.7165
X6.1083Y-3.4646
X6.1083Y-4.2126
X6.1083Y-4.9606
X6.1102Y-1.9685
X6.1339Y-2.4724
X6.1535Y-2.0787
X6.1654Y-1.9213
X6.1772Y-2.3425
X6.1772Y-3.5827
X6.1772Y-5.2795
X6.185Y-5.0709
X6.189Y-2.6969
X6.2205Y-2.5906
X6.2283Y-3.252
X6.2441Y-3.4409
X6.2717Y-4.0945
X6.2953Y-3.7795
X6.2992Y-5.2717
X6.3031Y-4.9252
X6.3071Y-4.5236
X6.3346Y-5.0433
X6.3858Y-4.0551
X6.4016Y-1.8189
X6.4094Y-1.937
X6.4094Y-2.5669
X6.4094Y-4.7953
X6.4291Y-3.3228
X6.4449Y-2.6
X6.4449Y-4.1024
X6.4449Y-4.8504
X6.4646Y-1.8583
X6.4646Y-3.3504
X6.4803Y-3.5394
X6.5079Y-2.0236
X6.6063Y-5.2126
X6.622Y-2.9764
X6.622Y-3.7047
X6.626Y-2.2087
X6.626Y-4.4685
X6.7362Y-3.5433
X6.7362Y-5.0354
X6.7717Y-1.8937
X6.7795Y-1.811
X6.7795Y-3.3858
X6.7795Y-4.8819
X6.7818Y-4.1407
X6.7874Y-2.6457
X6.8031Y-1.9449
X6.8268Y-2.4764
X6.8504Y-2.4449
X6.8566Y-4.9702
X6.8573Y-4.2126
X6.8583Y-1.9606
X6.8583Y-2.7165
X6.8583Y-3.4646
X6.8622Y-1.7717
X6.8661Y-5.3937
X6.9055Y-2.6693
X6.9213Y-2.0551
X6.9252Y-3.563
X6.9252Y-4.9094
X6.9291Y-5.0394
X7.0413Y-4.1772
X7.0433Y-4.5906
X7.0472Y-3.4213
X7.0512Y-3.311
X7.0551Y-2.2992
X7.0591Y-2.7441
X7.0748Y-3.5433
X7.0748Y-5.0472
X7.126Y-3.9016
X7.1339Y-4.9252
X7.1496Y-1.8189
X7.1496Y-4.811
X7.1575Y-1.9488
X7.1575Y-4.0945
X7.1654Y-2.5157
X7.1772Y-2.5827
X7.1772Y-2.7047
X7.1811Y-3.3189
X7.1929Y-4.8528
X7.1937Y-4.1021
X7.2087Y-1.8622
X7.2087Y-2.437
X7.2087Y-2.5984
X7.2126Y-3.3543
X7.2323Y-2.7756
X7.2402Y-2.0394
X7.2402Y-2.5276
X7.3307Y-2.9528
X7.3386Y-4.4488
X7.3425Y-3.6969
X7.3701Y-2.2205
X7.3701Y-5.2008
X7.3825Y-3.1654
X7.3825Y-3.2407
X7.4567Y-3.2087
X7.4646Y-4.2638
X7.4803Y-2.7717
X7.4882Y-5.0276
X7.5Y-2.4016
X7.5Y-2.437
X7.5Y-2.4823
X7.5Y-2.5197
X7.5Y-2.5531
X7.5012Y-2.6378
X7.5029Y-3.385
X7.5118Y-4.8976
X7.5236Y-2.7165
X7.5276Y-3.4567
X7.5354Y-4.1417
X7.5396Y-1.8823
X7.5472Y-4.9331
X7.5669Y-3.1339
X7.5709Y-1.9291
X7.5787Y-2.5827
X7.5866Y-3.5118
X7.6043Y-4.2126
X7.6043Y-4.9606
X7.6299Y-2.0157
X7.6339Y-2.7008
X7.6339Y-2.7638
X7.6378Y-2.5236
X7.6496Y-1.8268
X7.6496Y-4.8307
X7.6654Y-2.8307
X7.6693Y-3.5472
X7.6732Y-5.2874
X7.6772Y-3.1496
X7.7087Y-2.8701
X7.7126Y-3.0866
X7.7126Y-3.9134
X7.7362Y-4.0866
X7.7371Y-3.4098
X7.7402Y-3.3087
X7.8031Y-3.4331
X7.811Y-3.6063
X7.8494Y-2.3194
X7.858Y-2.9118
X7.8583Y-2.4094
X7.8583Y-2.5118
X7.8583Y-2.6142
X7.8583Y-2.7165
X7.8583Y-2.811
X7.8583Y-3.0079
X7.8622Y-4.8386
X7.878Y-1.8425
X7.8791Y-2.0344
X7.8819Y-3.0787
X7.8976Y-4.0551
X7.9055Y-1.9606
X7.9055Y-2.2756
X7.9055Y-3.3661
X7.9095Y-2.2122
X7.9163Y-4.2323
X7.937Y-4.1024
X7.9484Y-4.8515
X7.9606Y-2.5906
X7.9685Y-2.6772
X7.9764Y-2.7835
X7.9803Y-5.0276
X7.9882Y-2.5
X8.0039Y-3.685
X8.0197Y-4.0315
X8.0394Y-3.0054
X8.0472Y-2.6969
X8.0994Y-3.013
X8.0997Y-2.4138
X8.1102Y-5.3622
X8.126Y-2.1457
X8.1407Y-3.2472
X8.1417Y-1.8701
X8.1969Y-3.
X8.1969Y-4.7008
X8.2047Y-2.3071
X8.2205Y-4.2598
X8.2283Y-2.1772
X8.2323Y-1.9764
X8.2362Y-4.3346
X8.2362Y-5.0354
X8.2638Y-2.4803
X8.2638Y-4.8898
X8.2677Y-4.1496
X8.2677Y-2.6772
X8.2717Y-2.3819
X8.2835Y-3.3583
X8.2953Y-3.0354
X8.3543Y-4.2126
X8.3543Y-4.9606
X8.4213Y-3.9606
X8.4252Y-4.6969
T3
X5.4921Y-5.0272
X5.4921Y-5.3272
X4.7441Y-4.9681
X4.7441Y-5.2681
X3.9921Y-5.0469
X3.9921Y-5.3469
X6.2402Y-3.5311
X6.2402Y-3.8311
X7.9396Y-3.1823
X8.0396Y-3.1823
X8.1396Y-3.1823
X8.2396Y-3.1823
X7.7646Y-1.9323
X7.7646Y-2.0323
X7.7646Y-2.1323
X7.7646Y-2.2323
X7.7646Y-2.3323
X7.7646Y-2.4323
X7.7646Y-2.5323
X7.7646Y-2.6323
X7.7646Y-2.7323
X7.7646Y-2.8323
X7.7646Y-2.9323
X7.7646Y-3.0323
X8.3646Y-1.9323
X8.3646Y-2.0323
X8.3646Y-2.1323
X8.3646Y-2.2323
X8.3646Y-2.3323
X8.3646Y-2.4323
X8.3646Y-2.5323
X8.3646Y-2.6323
X8.3646Y-2.7323
X8.3646Y-2.8323
X8.3646Y-2.9323
X8.3646Y-3.0323
X5.4921Y-3.5114
X5.4921Y-3.8114
X7.7402Y-4.2476
X7.7402Y-4.5476
X3.9921Y-1.9957
X3.9921Y-2.2957
X6.2402Y-2.7831
X6.2402Y-3.0831
X4.7441Y-3.5311
X4.7441Y-3.8311
X6.9882Y-4.2398
X6.9882Y-4.5398
X3.472Y-2.4685
X3.772Y-2.4685
X5.4921Y-2.7831
X5.4921Y-3.0831
X4.Y-4.2476
X4.Y-4.5476
X6.2402Y-1.9957
X6.2402Y-2.2957
X4.Y-3.5114
X4.Y-3.8114
X6.2402Y-4.2398
X6.2402Y-4.5398
X7.7362Y-5.035
X7.7362Y-5.335
X4.7441Y-2.7831
X4.7441Y-3.0831
X6.9882Y-3.5114
X6.9882Y-3.8114
X5.4921Y-1.9917
X5.4921Y-2.2917
X3.4681Y-3.9567
X3.7681Y-3.9567
X5.4921Y-4.2398
X5.4921Y-4.5398
X7.9396Y-3.2823
X3.9921Y-2.787
X3.9921Y-3.087
X3.4642Y-4.7126
X3.7642Y-4.7126
X4.7441Y-1.9957
X4.7441Y-2.2957
X6.9882Y-2.7831
X6.9882Y-3.0831
X4.7441Y-4.2398
X4.7441Y-4.5398
X6.2402Y-5.0272
X6.2402Y-5.3272
X3.4957Y-3.189
X3.7957Y-3.189
X4.2319Y-4.7008
X4.5319Y-4.7008
X6.9882Y-1.9917
X6.9882Y-2.2917
X7.8646Y-3.2823
X7.8146Y-1.8823
X7.8146Y-1.9823
X7.8146Y-2.0823
X7.8146Y-2.1823
X7.8146Y-2.2823
X7.8146Y-2.3823
X7.8146Y-2.4823
X7.8146Y-2.5823
X7.8146Y-2.6823
X7.8146Y-2.7823
X7.8146Y-2.8823
X7.8146Y-2.9823
X8.4146Y-1.8823
X8.4146Y-1.9823
X8.4146Y-2.0823
X8.4146Y-2.1823
X8.4146Y-2.2823
X8.4146Y-2.3823
X8.4146Y-2.4823
X8.4146Y-2.5823
X8.4146Y-2.6823
X8.4146Y-2.7823
X8.4146Y-2.8823
X8.4146Y-2.9823
X6.9882Y-4.9593
X6.9882Y-5.2593
T5
X8.1555Y-3.6378
X8.4114Y-3.6378
T6
X5.7161Y-2.9346
X5.7661Y-3.0346
X5.9661Y-3.0346
X6.0161Y-2.9346
X4.9681Y-2.9346
X5.0181Y-3.0346
X5.2181Y-3.0346
X5.2681Y-2.9346
X6.4642Y-3.6827
X6.5142Y-3.7827
X6.7142Y-3.7827
X6.7642Y-3.6827
X3.472Y-4.4307
X3.522Y-4.5307
X3.722Y-4.5307
X3.772Y-4.4307
X6.4642Y-5.1787
X6.5142Y-5.2787
X6.7142Y-5.2787
X6.7642Y-5.1787
X7.9602Y-5.1787
X8.0102Y-5.2787
X8.2102Y-5.2787
X8.2602Y-5.1787
X7.2122Y-2.9346
X7.2622Y-3.0346
X7.4622Y-3.0346
X7.5122Y-2.9346
X4.2201Y-2.1866
X4.2701Y-2.2866
X4.4701Y-2.2866
X4.5201Y-2.1866
X4.2201Y-2.9346
X4.2701Y-3.0346
X4.4701Y-3.0346
X4.5201Y-2.9346
X7.2122Y-4.4307
X7.2622Y-4.5307
X7.4622Y-4.5307
X7.5122Y-4.4307
X5.7161Y-2.1866
X5.7661Y-2.2866
X5.9661Y-2.2866
X6.0161Y-2.1866
X4.9681Y-3.6827
X5.0181Y-3.7827
X5.2181Y-3.7827
X5.2681Y-3.6827
X7.2122Y-5.1787
X7.2622Y-5.2787
X7.4622Y-5.2787
X7.5122Y-5.1787
X6.4642Y-2.1866
X6.5142Y-2.2866
X6.7142Y-2.2866
X6.7642Y-2.1866
X7.2122Y-2.1866
X7.2622Y-2.2866
X7.4622Y-2.2866
X7.5122Y-2.1866
X5.7161Y-3.6827
X5.7661Y-3.7827
X5.9661Y-3.7827
X6.0161Y-3.6827
X4.9681Y-5.1787
X5.0181Y-5.2787
X5.2181Y-5.2787
X5.2681Y-5.1787
X6.4642Y-4.4307
X6.5142Y-4.5307
X6.7142Y-4.5307
X6.7642Y-4.4307
X4.2201Y-5.1787
X4.2701Y-5.2787
X4.4701Y-5.2787
X4.5201Y-5.1787
X5.7161Y-5.1787
X5.7661Y-5.2787
X5.9661Y-5.2787
X6.0161Y-5.1787
X6.4642Y-2.9346
X6.5142Y-3.0346
X6.7142Y-3.0346
X6.7642Y-2.9346
X7.9602Y-4.4307
X8.0102Y-4.5307
X8.2102Y-4.5307
X8.2602Y-4.4307
X3.472Y-2.9346
X3.522Y-3.0346
X3.722Y-3.0346
X3.772Y-2.9346
X7.2122Y-3.6827
X7.2622Y-3.7827
X7.4622Y-3.7827
X7.5122Y-3.6827
X4.9681Y-4.4307
X5.0181Y-4.5307
X5.2181Y-4.5307
X5.2681Y-4.4307
X5.7161Y-4.4307
X5.7661Y-4.5307
X5.9661Y-4.5307
X6.0161Y-4.4307
X4.2201Y-4.4307
X4.2701Y-4.5307
X4.4701Y-4.5307
X4.5201Y-4.4307
X3.472Y-3.6827
X3.522Y-3.7827
X3.722Y-3.7827
X3.772Y-3.6827
X3.472Y-2.1866
X3.522Y-2.2866
X3.722Y-2.2866
X3.772Y-2.1866
X4.9681Y-2.1866
X5.0181Y-2.2866
X5.2181Y-2.2866
X5.2681Y-2.1866
X4.2201Y-3.6827
X4.2701Y-3.7827
X4.4701Y-3.7827
X4.5201Y-3.6827
X3.472Y-5.1787
X3.522Y-5.2787
X3.722Y-5.2787
X3.772Y-5.1787
T7
X8.1299Y-3.3634
X8.1299Y-3.4323
X8.4055Y-3.3634
X8.4055Y-3.4323
T8
X6.4142Y-2.8346
X6.8142Y-2.8346
X7.9102Y-4.3307
X8.3102Y-4.3307
X3.422Y-2.8346
X3.822Y-2.8346
X7.1622Y-3.5827
X7.5622Y-3.5827
X4.9181Y-4.3307
X5.3181Y-4.3307
X5.6661Y-4.3307
X6.0661Y-4.3307
X4.1701Y-4.3307
X4.5701Y-4.3307
X3.422Y-3.5827
X3.822Y-3.5827
X3.422Y-2.0866
X3.822Y-2.0866
X4.9181Y-2.0866
X5.3181Y-2.0866
X4.1701Y-3.5827
X4.5701Y-3.5827
X3.422Y-5.0787
X3.822Y-5.0787
X5.6661Y-2.8346
X6.0661Y-2.8346
X4.9181Y-2.8346
X5.3181Y-2.8346
X6.4142Y-3.5827
X6.8142Y-3.5827
X3.422Y-4.3307
X3.822Y-4.3307
X6.4142Y-5.0787
X6.8142Y-5.0787
X7.9102Y-5.0787
X8.3102Y-5.0787
X7.1622Y-2.8346
X7.5622Y-2.8346
X4.1701Y-2.0866
X4.5701Y-2.0866
X4.1701Y-2.8346
X4.5701Y-2.8346
X7.1622Y-4.3307
X7.5622Y-4.3307
X5.6661Y-2.0866
X6.0661Y-2.0866
X4.9181Y-3.5827
X5.3181Y-3.5827
X7.1622Y-5.0787
X7.5622Y-5.0787
X6.4142Y-2.0866
X6.8142Y-2.0866
X7.1622Y-2.0866
X7.5622Y-2.0866
X5.6661Y-3.5827
X6.0661Y-3.5827
X4.9181Y-5.0787
X5.3181Y-5.0787
X6.4142Y-4.3307
X6.8142Y-4.3307
X4.1701Y-5.0787
X4.5701Y-5.0787
X5.6661Y-5.0787
X6.0661Y-5.0787
T9
X7.8346Y-3.1693
X8.376Y-3.1693
X7.8346Y-3.8583
X8.376Y-3.8583
T10
X7.3622Y-5.0787
X6.6142Y-2.0866
X7.3622Y-2.0866
X5.8661Y-3.5827
X5.1181Y-5.0787
X6.6142Y-4.3307
X4.3701Y-5.0787
X5.8661Y-5.0787
X6.6142Y-2.8346
X8.1102Y-4.3307
X3.622Y-2.8346
X7.3622Y-3.5827
X5.1181Y-4.3307
X5.8661Y-4.3307
X4.3701Y-4.3307
X3.622Y-3.5827
X3.622Y-2.0866
X5.1181Y-2.0866
X4.3701Y-3.5827
X3.622Y-5.0787
X5.8661Y-2.8346
X5.1181Y-2.8346
X6.6142Y-3.5827
X3.622Y-4.3307
X6.6142Y-5.0787
X8.1102Y-5.0787
X7.3622Y-2.8346
X4.3701Y-2.0866
X4.3701Y-2.8346
X7.3622Y-4.3307
X5.8661Y-2.0866
X5.1181Y-3.5827
T11
X7.7362Y-4.7047
X3.9961Y-3.9567
X6.2402Y-4.7047
X6.9882Y-3.9567
X5.4921Y-2.4606
X3.9961Y-4.7047
X6.9882Y-2.4606
X5.4921Y-3.9567
X3.9961Y-2.4606
T4
X8.0098Y-3.3496G85X7.9902Y-3.3496
G05
X8.0098Y-3.4461G85X7.9902Y-3.4461
G05
X8.0689Y-3.2807G85X8.0492Y-3.2807
G05
X8.0689Y-3.515G85X8.0492Y-3.515
G05
X8.2264Y-3.2807G85X8.2067Y-3.2807
G05
X8.2264Y-3.515G85X8.2067Y-3.515
G05
X8.3445Y-3.2807G85X8.3248Y-3.2807
G05
X8.3445Y-3.515G85X8.3248Y-3.515
G05
T0
M30
